<svg xmlns="http://www.w3.org/2000/svg" viewBox="0 0 512 512">
  <!-- Platzhalter-Icon: Zahnrad = „App wird gebaut" -->
  <rect width="512" height="512" rx="104" fill="#2c2a26"/>
  <g fill="#f6f1e7">
    <rect x="228" y="86" width="56" height="92" rx="14" transform="rotate(0 256 256)"/>
    <rect x="228" y="86" width="56" height="92" rx="14" transform="rotate(45 256 256)"/>
    <rect x="228" y="86" width="56" height="92" rx="14" transform="rotate(90 256 256)"/>
    <rect x="228" y="86" width="56" height="92" rx="14" transform="rotate(135 256 256)"/>
    <rect x="228" y="86" width="56" height="92" rx="14" transform="rotate(180 256 256)"/>
    <rect x="228" y="86" width="56" height="92" rx="14" transform="rotate(225 256 256)"/>
    <rect x="228" y="86" width="56" height="92" rx="14" transform="rotate(270 256 256)"/>
    <rect x="228" y="86" width="56" height="92" rx="14" transform="rotate(315 256 256)"/>
    <circle cx="256" cy="256" r="124"/>
  </g>
  <circle cx="256" cy="256" r="56" fill="#2c2a26"/>
</svg>
