<svg xmlns="http://www.w3.org/2000/svg" viewBox="0 0 64 64">
<path d="M20 3h24l17 17v24L44 61H20L3 44V20L20 3z" fill="#101418" stroke="#e3c178" stroke-width="2" stroke-linejoin="round"/>
<g stroke="#2aa39c" stroke-width="1.5" stroke-linecap="round" stroke-opacity=".6">
<line x1="32" y1="24" x2="32" y2="16.5"/>
<line x1="38.93" y1="28" x2="45.42" y2="24.25"/>
<line x1="38.93" y1="36" x2="45.42" y2="39.75"/>
<line x1="32" y1="40" x2="32" y2="47.5"/>
<line x1="25.07" y1="36" x2="18.58" y2="39.75"/>
<line x1="25.07" y1="28" x2="18.58" y2="24.25"/>
</g>
<circle cx="32" cy="32" r="10.5" fill="#101418"/>
<g fill="#2aa39c">
<circle cx="32" cy="14" r="2.3"/>
<circle cx="47.59" cy="23" r="2.3"/>
<circle cx="47.59" cy="41" r="2.3"/>
<circle cx="32" cy="50" r="2.3"/>
<circle cx="16.41" cy="41" r="2.3"/>
<circle cx="16.41" cy="23" r="2.3"/>
<circle cx="32" cy="28.6" r="3.9"/>
<path d="M24.6 41.2a7.4 7.4 0 0 1 14.8 0z"/>
</g>
</svg>
