<svg xmlns="http://www.w3.org/2000/svg" viewBox="0 0 64 64">
<path d="M20 3h24l17 17v24L44 61H20L3 44V20L20 3z" fill="#101418" stroke="#e3c178" stroke-width="2" stroke-linejoin="round"/>
<g fill="#2aa39c">
<path d="M32 31c-6 0-10 4-10 9 0 2.6.9 4.8 2 6.8 1.8 3.2 4 5.2 8 5.2s6.2-2 8-5.2c1.1-2 2-4.2 2-6.8 0-5-4-9-10-9z"/>
<circle cx="23.5" cy="27.5" r="3.1"/>
<circle cx="28.8" cy="24" r="2.5"/>
<circle cx="33.4" cy="23.4" r="2.3"/>
<circle cx="37.6" cy="24.8" r="2"/>
<circle cx="41" cy="27.4" r="1.8"/>
</g>
</svg>
