<svg xmlns="http://www.w3.org/2000/svg" viewBox="0 0 100 100" width="100" height="100">
<circle cx="50.00" cy="3.00" r="1.2" fill="#e3c178"/><circle cx="62.16" cy="4.60" r="1.2" fill="#e3c178"/><circle cx="73.50" cy="9.30" r="1.2" fill="#e3c178"/><circle cx="83.23" cy="16.77" r="1.2" fill="#e3c178"/><circle cx="90.70" cy="26.50" r="1.2" fill="#e3c178"/><circle cx="95.40" cy="37.84" r="1.2" fill="#e3c178"/><circle cx="97.00" cy="50.00" r="1.2" fill="#e3c178"/><circle cx="95.40" cy="62.16" r="1.2" fill="#e3c178"/><circle cx="90.70" cy="73.50" r="1.2" fill="#e3c178"/><circle cx="83.23" cy="83.23" r="1.2" fill="#e3c178"/><circle cx="73.50" cy="90.70" r="1.2" fill="#e3c178"/><circle cx="62.16" cy="95.40" r="1.2" fill="#e3c178"/><circle cx="50.00" cy="97.00" r="1.2" fill="#e3c178"/><circle cx="37.84" cy="95.40" r="1.2" fill="#e3c178"/><circle cx="26.50" cy="90.70" r="1.2" fill="#e3c178"/><circle cx="16.77" cy="83.23" r="1.2" fill="#e3c178"/><circle cx="9.30" cy="73.50" r="1.2" fill="#e3c178"/><circle cx="4.60" cy="62.16" r="1.2" fill="#e3c178"/><circle cx="3.00" cy="50.00" r="1.2" fill="#e3c178"/><circle cx="4.60" cy="37.84" r="1.2" fill="#e3c178"/><circle cx="9.30" cy="26.50" r="1.2" fill="#e3c178"/><circle cx="16.77" cy="16.77" r="1.2" fill="#e3c178"/><circle cx="26.50" cy="9.30" r="1.2" fill="#e3c178"/><circle cx="37.84" cy="4.60" r="1.2" fill="#e3c178"/><circle cx="50" cy="50" r="40" fill="rgba(15,74,82,.6)" stroke="#e3c178" stroke-width="1.1"/><path d="M50.00,18.84L81.16,50.00L50.00,81.16L18.84,50.00Z" fill="rgba(22,104,107,.9)" stroke="#e3c178" stroke-width="1.3" stroke-linejoin="round"/><path d="M72.03,27.97L72.03,72.03L27.97,72.03L27.97,27.97Z" fill="rgba(32,150,143,.6)" stroke="#e3c178" stroke-width="1.3" stroke-linejoin="round"/><path d="M50.00,36.88L63.12,50.00L50.00,63.12L36.88,50.00Z" fill="#070707" stroke="#f6e4b0" stroke-width="1" stroke-linejoin="round"/><path d="M53.48,46.52L53.48,53.48L46.52,53.48L46.52,46.52Z" fill="#2aa39c" stroke="#f6e4b0" stroke-width="0.8" stroke-linejoin="round"/>
</svg>
