<svg xmlns="http://www.w3.org/2000/svg" viewBox="0 0 100 100" width="100" height="100">
<circle cx="50" cy="50" r="47" fill="none" stroke="#f6e4b0" stroke-width="0.6"/><path d="M50.00,15.04L84.96,50.00L50.00,84.96L15.04,50.00Z" fill="rgba(22,104,107,.9)" stroke="#e3c178" stroke-width="1.3" stroke-linejoin="round"/><path d="M74.72,25.28L74.72,74.72L25.28,74.72L25.28,25.28Z" fill="rgba(32,150,143,.6)" stroke="#e3c178" stroke-width="1.3" stroke-linejoin="round"/><path d="M50.00,35.28L64.72,50.00L50.00,64.72L35.28,50.00Z" fill="#070707" stroke="#f6e4b0" stroke-width="1" stroke-linejoin="round"/><path d="M53.90,46.10L53.90,53.90L46.10,53.90L46.10,46.10Z" fill="#2aa39c" stroke="#f6e4b0" stroke-width="0.8" stroke-linejoin="round"/><circle cx="50.00" cy="5.00" r="1.5" fill="#e3c178"/><circle cx="67.22" cy="8.43" r="1.5" fill="#e3c178"/><circle cx="81.82" cy="18.18" r="1.5" fill="#e3c178"/><circle cx="91.57" cy="32.78" r="1.5" fill="#e3c178"/><circle cx="95.00" cy="50.00" r="1.5" fill="#e3c178"/><circle cx="91.57" cy="67.22" r="1.5" fill="#e3c178"/><circle cx="81.82" cy="81.82" r="1.5" fill="#e3c178"/><circle cx="67.22" cy="91.57" r="1.5" fill="#e3c178"/><circle cx="50.00" cy="95.00" r="1.5" fill="#e3c178"/><circle cx="32.78" cy="91.57" r="1.5" fill="#e3c178"/><circle cx="18.18" cy="81.82" r="1.5" fill="#e3c178"/><circle cx="8.43" cy="67.22" r="1.5" fill="#e3c178"/><circle cx="5.00" cy="50.00" r="1.5" fill="#e3c178"/><circle cx="8.43" cy="32.78" r="1.5" fill="#e3c178"/><circle cx="18.18" cy="18.18" r="1.5" fill="#e3c178"/><circle cx="32.78" cy="8.43" r="1.5" fill="#e3c178"/>
</svg>
